<svg width="43" height="43" viewBox="0 0 43 43" fill="none" xmlns="http://www.w3.org/2000/svg">
<rect width="43" height="43" rx="10" transform="matrix(-1 0 0 1 43 0)" fill="#060303"/>
<path d="M27.785 14.1014L11.8405 20.3854C10.7523 20.8321 10.7586 21.4525 11.6408 21.7291L15.7344 23.0343L25.2058 16.9268C25.6537 16.6483 26.0629 16.7981 25.7265 17.1033L18.0528 24.1813H18.051L18.0528 24.1822L17.7705 28.4947C18.1841 28.4947 18.3667 28.3008 18.5987 28.0719L20.5871 26.0958L24.7229 29.218C25.4855 29.6473 26.0332 29.4267 26.2229 28.4965L28.9379 15.4194C29.2158 14.2807 28.5126 13.7651 27.785 14.1014V14.1014Z" fill="#F8F8F8"/>
</svg>
