<svg width="43" height="43" viewBox="0 0 43 43" fill="none" xmlns="http://www.w3.org/2000/svg">
<rect width="43" height="43" rx="10" transform="matrix(-1 0 0 1 43 0)" fill="#060303"/>
<path d="M29.01 24.38C27.78 24.38 26.59 24.18 25.48 23.82C25.3061 23.7611 25.1191 23.7523 24.9405 23.7948C24.7618 23.8372 24.5988 23.9291 24.47 24.06L22.9 26.03C20.07 24.68 17.42 22.13 16.01 19.2L17.96 17.54C18.23 17.26 18.31 16.87 18.2 16.52C17.83 15.41 17.64 14.22 17.64 12.99C17.64 12.45 17.19 12 16.65 12H13.19C12.65 12 12 12.24 12 12.99C12 22.28 19.73 30 29.01 30C29.72 30 30 29.37 30 28.82V25.37C30 24.83 29.55 24.38 29.01 24.38Z" fill="#F8F8F8"/>
</svg>
