<svg width="22" height="24" viewBox="0 0 22 24" fill="none" xmlns="http://www.w3.org/2000/svg">
<path d="M2.32131 21.8038C5.24763 24.7321 10.013 24.7321 12.9362 21.8038L21.0442 13.6965C21.097 13.6437 21.125 13.5722 21.125 13.4976C21.125 13.423 21.097 13.3515 21.0442 13.2986L19.8979 12.1515C19.8455 12.0993 19.7746 12.07 19.7006 12.07C19.6267 12.07 19.5558 12.0993 19.5034 12.1515L11.3954 20.2588C10.3889 21.266 9.04999 21.8193 7.62722 21.8193C6.20444 21.8193 4.86553 21.266 3.86213 20.2588C2.85563 19.2516 2.30267 17.9118 2.30267 16.4912C2.30267 15.0674 2.85563 13.7307 3.86213 12.7235L12.1254 4.45774L13.4643 3.11793C14.7163 1.86516 16.751 1.86516 18.0029 3.11793C18.6087 3.72411 18.9411 4.52924 18.9411 5.38722C18.9411 6.24519 18.6087 7.05032 18.0029 7.6565L9.80487 15.857C9.59674 16.0622 9.32337 16.1772 9.03136 16.1772H9.02825C8.73624 16.1772 8.46597 16.0622 8.26094 15.857C8.05281 15.6487 7.94097 15.3752 7.94097 15.083C7.94097 14.7939 8.05591 14.5203 8.26094 14.3151L14.9617 7.61609C15.0145 7.56324 15.0424 7.49174 15.0424 7.41714C15.0424 7.34253 15.0145 7.27103 14.9617 7.21819L13.8154 6.07111C13.763 6.01891 13.692 5.9896 13.6181 5.9896C13.5442 5.9896 13.4732 6.01891 13.4208 6.07111L6.72322 12.7733C6.10503 13.3919 5.76642 14.2126 5.76642 15.0861C5.76642 15.9596 6.10814 16.7834 6.72322 17.3989C8 18.6765 10.0751 18.6734 11.3519 17.3989L12.1472 16.6L19.5469 9.19837C20.0491 8.69875 20.4472 8.10433 20.7181 7.44957C20.989 6.79482 21.1273 6.09276 21.125 5.38411C21.125 3.94482 20.5627 2.59258 19.5469 1.57606C18.4938 0.525355 17.1145 -3.21538e-07 15.7352 -3.21538e-07C14.3559 -3.21538e-07 12.9766 0.525355 11.9266 1.57606L2.32131 11.1817C0.907849 12.5992 0.12501 14.4861 0.12501 16.4912C0.121904 18.4993 0.904743 20.3862 2.32131 21.8038Z" fill="black"/>
</svg>
