<svg width="28" height="28" viewBox="0 0 28 28" fill="none" xmlns="http://www.w3.org/2000/svg">
<path d="M1.18644 26.8136C0.531188 26.1583 0.531187 25.0959 1.18644 24.4407L24.4407 1.18644C25.0959 0.531188 26.1583 0.531188 26.8136 1.18644C27.4688 1.84169 27.4688 2.90407 26.8136 3.55932L3.55932 26.8136C2.90407 27.4688 1.84169 27.4688 1.18644 26.8136Z" fill="#060303"/>
<path d="M26.8136 26.8136C26.1583 27.4688 25.0959 27.4688 24.4407 26.8136L1.18644 3.55932C0.531188 2.90407 0.531188 1.8417 1.18644 1.18644C1.84169 0.53119 2.90407 0.53119 3.55932 1.18644L26.8136 24.4407C27.4688 25.0959 27.4688 26.1583 26.8136 26.8136Z" fill="#060303"/>
</svg>
