<svg width="350" height="1169" viewBox="0 0 350 1169" fill="none" xmlns="http://www.w3.org/2000/svg">
<rect x="0.870647" y="0.870647" width="348.259" height="135.085" rx="20.8955" stroke="#F51310" stroke-width="1.74129"/>
<rect x="0.870647" y="193.697" width="348.259" height="175.085" rx="20.8955" stroke="#F51310" stroke-width="1.74129"/>
<rect x="0.870647" y="426.522" width="348.259" height="215.085" rx="20.8955" stroke="#F51310" stroke-width="1.74129"/>
<rect x="0.870647" y="699.348" width="348.259" height="195.085" rx="20.8955" stroke="#F51310" stroke-width="1.74129"/>
<rect x="0.870647" y="952.174" width="348.259" height="215.085" rx="20.8955" stroke="#F51310" stroke-width="1.74129"/>
<path d="M175 200.333C177.946 200.333 180.333 197.946 180.333 195C180.333 192.054 177.946 189.667 175 189.667C172.054 189.667 169.667 192.054 169.667 195C169.667 197.946 172.054 200.333 175 200.333ZM175 144.333C177.946 144.333 180.333 141.946 180.333 139C180.333 136.054 177.946 133.667 175 133.667C172.054 133.667 169.667 136.054 169.667 139C169.667 141.946 172.054 144.333 175 144.333ZM176 195L176 139L174 139L174 195L176 195Z" fill="#F51310"/>
<path d="M175 431.333C177.946 431.333 180.333 428.946 180.333 426C180.333 423.054 177.946 420.667 175 420.667C172.054 420.667 169.667 423.054 169.667 426C169.667 428.946 172.054 431.333 175 431.333ZM175 375.333C177.946 375.333 180.333 372.946 180.333 370C180.333 367.054 177.946 364.667 175 364.667C172.054 364.667 169.667 367.054 169.667 370C169.667 372.946 172.054 375.333 175 375.333ZM176 426L176 370L174 370L174 426L176 426Z" fill="#F51310"/>
<path d="M175 704.333C177.946 704.333 180.333 701.946 180.333 699C180.333 696.054 177.946 693.667 175 693.667C172.054 693.667 169.667 696.054 169.667 699C169.667 701.946 172.054 704.333 175 704.333ZM175 648.333C177.946 648.333 180.333 645.946 180.333 643C180.333 640.054 177.946 637.667 175 637.667C172.054 637.667 169.667 640.054 169.667 643C169.667 645.946 172.054 648.333 175 648.333ZM176 699L176 643L174 643L174 699L176 699Z" fill="#F51310"/>
<path d="M175 956.333C177.946 956.333 180.333 953.946 180.333 951C180.333 948.054 177.946 945.667 175 945.667C172.054 945.667 169.667 948.054 169.667 951C169.667 953.946 172.054 956.333 175 956.333ZM175 900.333C177.946 900.333 180.333 897.946 180.333 895C180.333 892.054 177.946 889.667 175 889.667C172.054 889.667 169.667 892.054 169.667 895C169.667 897.946 172.054 900.333 175 900.333ZM176 951L176 895L174 895L174 951L176 951Z" fill="#F51310"/>
</svg>
