<svg width="904" height="720" viewBox="0 0 904 720" fill="none" xmlns="http://www.w3.org/2000/svg">
<rect x="1" y="1" width="400" height="154" rx="24" stroke="#F51310" stroke-width="2"/>
<rect x="503" y="143" width="400" height="206" rx="24" stroke="#F51310" stroke-width="2"/>
<rect x="1" y="195" width="400" height="258" rx="24" stroke="#F51310" stroke-width="2"/>
<rect x="1" y="485" width="400" height="234" rx="24" stroke="#F51310" stroke-width="2"/>
<rect x="503" y="409" width="400" height="260" rx="24" stroke="#F51310" stroke-width="2"/>
<path d="M396.667 81C396.667 83.9455 399.054 86.3333 402 86.3333C404.946 86.3333 407.333 83.9455 407.333 81C407.333 78.0545 404.946 75.6667 402 75.6667C399.054 75.6667 396.667 78.0545 396.667 81ZM402 82L702 82L702 80L402 80L402 82Z" fill="#F51310"/>
<path d="M394.667 250C394.667 252.946 397.054 255.333 400 255.333C402.946 255.333 405.333 252.946 405.333 250C405.333 247.054 402.946 244.667 400 244.667C397.054 244.667 394.667 247.054 394.667 250ZM496.667 250C496.667 252.946 499.054 255.333 502 255.333C504.946 255.333 507.333 252.946 507.333 250C507.333 247.054 504.946 244.667 502 244.667C499.054 244.667 496.667 247.054 496.667 250ZM400 251L502 251L502 249L400 249L400 251Z" fill="#F51310"/>
<path d="M394.667 573C394.667 575.946 397.054 578.333 400 578.333C402.946 578.333 405.333 575.946 405.333 573C405.333 570.054 402.946 567.667 400 567.667C397.054 567.667 394.667 570.054 394.667 573ZM496.667 573C496.667 575.946 499.054 578.333 502 578.333C504.946 578.333 507.333 575.946 507.333 573C507.333 570.054 504.946 567.667 502 567.667C499.054 567.667 496.667 570.054 496.667 573ZM400 574L502 574L502 572L400 572L400 574Z" fill="#F51310"/>
<path d="M201 489.333C203.946 489.333 206.333 486.946 206.333 484C206.333 481.054 203.946 478.667 201 478.667C198.054 478.667 195.667 481.054 195.667 484C195.667 486.946 198.054 489.333 201 489.333ZM201 457.333C203.946 457.333 206.333 454.946 206.333 452C206.333 449.054 203.946 446.667 201 446.667C198.054 446.667 195.667 449.054 195.667 452C195.667 454.946 198.054 457.333 201 457.333ZM202 484L202 452L200 452L200 484L202 484Z" fill="#F51310"/>
<path d="M701 147.333C703.946 147.333 706.333 144.946 706.333 142C706.333 139.054 703.946 136.667 701 136.667C698.054 136.667 695.667 139.054 695.667 142C695.667 144.946 698.054 147.333 701 147.333ZM702 142L702 80L700 80L700 142L702 142Z" fill="#F51310"/>
</svg>
