<svg width="9" height="40" viewBox="0 0 9 40" fill="none" xmlns="http://www.w3.org/2000/svg">
<path d="M4.5 0.333333C3.02724 0.333333 1.83333 1.52724 1.83333 3C1.83333 4.47276 3.02724 5.66667 4.5 5.66667C5.97276 5.66667 7.16667 4.47276 7.16667 3C7.16667 1.52724 5.97276 0.333333 4.5 0.333333ZM4.14645 39.3536C4.34171 39.5488 4.65829 39.5488 4.85355 39.3536L8.03554 36.1716C8.2308 35.9763 8.2308 35.6597 8.03554 35.4645C7.84027 35.2692 7.52369 35.2692 7.32843 35.4645L4.5 38.2929L1.67157 35.4645C1.47631 35.2692 1.15973 35.2692 0.964468 35.4645C0.769205 35.6597 0.769205 35.9763 0.964468 36.1716L4.14645 39.3536ZM4 3L4 39L5 39L5 3L4 3Z" fill="#F8F8F8"/>
</svg>
