<svg width="48" height="32" fill="none" xmlns="http://www.w3.org/2000/svg"><path fill-rule="evenodd" clip-rule="evenodd" d="M12.354 27.688c-.196-.195-.127-.58.153-.86l22.32-22.32c.28-.28.666-.35.861-.154.195.195.127.58-.154.86l-22.32 22.32c-.28.28-.665.35-.86.154Z" fill="#F8F8F8" fill-opacity=".5"/><path fill-rule="evenodd" clip-rule="evenodd" d="M12.354 4.354c.195-.196.58-.127.86.153l22.32 22.32c.28.28.35.666.154.861-.195.195-.58.127-.86-.154l-22.32-22.32c-.28-.28-.35-.665-.154-.86Z" fill="#8B8B8B"/><rect x="-.5" y=".5" width="47" height="31" rx="6.5" transform="matrix(-1 0 0 1 47 0)" stroke="#F8F8F8" stroke-opacity=".5"/></svg>