<svg width="652" height="581" viewBox="0 0 652 581" fill="none" xmlns="http://www.w3.org/2000/svg">
<path d="M13.5858 113.54C14.3668 114.321 15.6332 114.321 16.4142 113.54L29.1421 100.812C29.9232 100.031 29.9232 98.7643 29.1421 97.9833C28.3611 97.2022 27.0948 97.2022 26.3137 97.9833L15 109.297L3.68629 97.9833C2.90524 97.2022 1.63891 97.2022 0.857864 97.9833C0.0768158 98.7643 0.0768158 100.031 0.857864 100.812L13.5858 113.54ZM13 110V112.125H17V110H13ZM542 0L324.675 0V4L542 4V0ZM648 110V581H652V110H648ZM324.675 0L167.223 0V4L324.675 4V0ZM167.223 0L123 0V4L167.223 4V0ZM17 110C17 51.4578 64.4578 4 123 4V0C62.2487 0 13 49.2486 13 110H17ZM542 4C600.542 4 648 51.4578 648 110H652C652 49.2487 602.751 0 542 0V4Z" fill="#F8F8F8"/>
</svg>
