<svg width="651" height="629" viewBox="0 0 651 629" fill="none" xmlns="http://www.w3.org/2000/svg">
<path d="M634.586 463.086C635.367 462.305 636.633 462.305 637.414 463.086L650.142 475.814C650.923 476.595 650.923 477.861 650.142 478.642C649.361 479.423 648.095 479.423 647.314 478.642L636 467.328L624.686 478.642C623.905 479.423 622.639 479.423 621.858 478.642C621.077 477.861 621.077 476.595 621.858 475.814L634.586 463.086ZM0 317.485V0H4V317.485H0ZM473.5 629H311.515V625H473.5V629ZM4 317.485C4 487.321 141.679 625 311.515 625V629C139.47 629 0 489.53 0 317.485H4ZM473.5 625C562.142 625 634 553.142 634 464.5H638C638 555.351 564.351 629 473.5 629V625Z" fill="#F8F8F8"/>
</svg>
