<svg width="618" height="638" viewBox="0 0 618 638" fill="none" xmlns="http://www.w3.org/2000/svg">
<path d="M13.5858 0.585815C14.3668 -0.195251 15.6332 -0.195251 16.4142 0.585815L29.1422 13.3137C29.9232 14.0948 29.9232 15.3611 29.1422 16.1422C28.3611 16.9232 27.0948 16.9232 26.3137 16.1422L15 4.82843L3.68628 16.1422C2.90521 16.9232 1.63892 16.9232 0.857849 16.1422C0.0768433 15.3611 0.0768433 14.0948 0.857849 13.3137L13.5858 0.585815ZM13 337.97V2H17V337.97H13ZM477.5 637.5H312.53V633.5H477.5V637.5ZM17 337.97C17 501.187 149.313 633.5 312.53 633.5V637.5C147.104 637.5 13 503.396 13 337.97H17ZM477.5 633.5C552.611 633.5 613.5 572.611 613.5 497.5H617.5C617.5 574.82 554.82 637.5 477.5 637.5V633.5Z" fill="#F8F8F8"/>
</svg>
