<svg width="619" height="528" viewBox="0 0 619 528" fill="none" xmlns="http://www.w3.org/2000/svg">
<path d="M602.586 526.914C603.367 527.695 604.633 527.695 605.414 526.914L618.142 514.186C618.923 513.405 618.923 512.139 618.142 511.358C617.361 510.577 616.095 510.577 615.314 511.358L604 522.672L592.686 511.358C591.905 510.577 590.639 510.577 589.858 511.358C589.077 512.139 589.077 513.405 589.858 514.186L602.586 526.914ZM602 311.852V525.5H606V311.852H602ZM294.648 0.5L156.961 0.5V4.5L294.648 4.5V0.5ZM156.961 0.5L103.5 0.5V4.5L156.961 4.5V0.5ZM4 104C4 49.0477 48.5477 4.5 103.5 4.5V0.5C46.3385 0.5 0 46.8385 0 104H4ZM294.648 4.5C464.394 4.5 602 142.106 602 311.852H606C606 139.897 466.603 0.5 294.648 0.5V4.5Z" fill="#F8F8F8"/>
</svg>
