<svg width="32" height="32" viewBox="0 0 32 32" fill="none" xmlns="http://www.w3.org/2000/svg">
<path d="M16.7071 10.2929C16.3166 9.90237 15.6834 9.90237 15.2929 10.2929L8.92893 16.6569C8.53841 17.0474 8.53841 17.6805 8.92893 18.0711C9.31946 18.4616 9.95262 18.4616 10.3431 18.0711L16 12.4142L21.6569 18.0711C22.0474 18.4616 22.6805 18.4616 23.0711 18.0711C23.4616 17.6805 23.4616 17.0474 23.0711 16.6569L16.7071 10.2929ZM17 22L17 11L15 11L15 22L17 22Z" fill="#F8F8F8" fill-opacity="0.5"/>
<rect x="1" y="1" width="30" height="30" rx="15" transform="matrix(-4.37114e-08 1 1 4.37114e-08 -4.37114e-08 4.37114e-08)" stroke="#F8F8F8" stroke-opacity="0.5" stroke-width="2"/>
</svg>
